<?xml version="1.0" encoding="utf-8"?>
<svg viewBox="36.208 32.397 517.4 132.776" xmlns="http://www.w3.org/2000/svg">
  <g transform="matrix(0.10000000149011612, 0, 0, -0.10000000149011612, 3.552713678800501e-15, 199)" fill="inherit" stroke="none">
    <path d="M830 1564 c-142 -37 -267 -137 -324 -258 -77 -163 -76 -410 4 -571 65 -133 155 -217 277 -261 59 -22 214 -24 293 -5 128 31 250 114 235 160 -9 29 -54 81 -70 81 -7 0 -36 -16 -65 -35 -124 -83 -277 -97 -387 -34 -72 41 -97 68 -134 145 -90 185 -45 466 92 574 64 50 113 63 216 58 71 -4 93 -10 158 -43 86 -43 89 -42 125 35 l23 50 -24 26 c-71 78 -276 116 -419 78z"/>
    <path d="M3874 1566 c-199 -46 -348 -215 -375 -426 -20 -155 10 -339 73 -449 39 -68 120 -151 174 -179 67 -34 151 -54 232 -54 69 0 181 14 216 28 8 3 21 -2 30 -11 23 -23 63 -31 121 -25 l50 5 3 323 2 322 -190 0 -190 0 0 -70 0 -70 48 0 c26 0 71 -3 100 -6 l52 -7 0 -136 0 -136 -33 -21 c-52 -35 -107 -48 -197 -48 -77 0 -91 3 -152 33 -59 31 -71 42 -107 101 -55 93 -75 165 -75 280 -1 172 61 299 174 359 61 33 71 35 160 35 86 0 102 -3 169 -33 86 -39 111 -34 136 25 23 55 19 71 -22 98 -93 60 -280 89 -399 62z"/>
    <path d="M1760 1255 c-114 -32 -176 -89 -229 -207 -88 -196 -8 -470 162 -552 104 -51 260 -52 362 -1 62 30 143 115 175 183 47 98 43 289 -7 392 -34 69 -103 136 -173 168 -71 32 -208 40 -290 17z m175 -145 c58 -15 76 -28 119 -90 30 -43 31 -49 31 -150 0 -92 -3 -111 -25 -155 -27 -53 -70 -85 -144 -106 -80 -22 -173 24 -223 109 -23 39 -27 56 -27 136 -1 82 2 98 29 150 16 31 42 67 58 78 36 26 97 48 117 44 8 -2 38 -10 65 -16z"/>
    <path d="M2518 1263 c-15 -4 -18 -16 -18 -69 0 -60 2 -65 25 -74 l25 -10 0 -314 c0 -173 3 -321 6 -330 5 -12 21 -16 75 -16 65 0 69 1 70 23 0 12 4 128 8 258 l6 236 31 49 c42 69 83 94 154 94 66 0 110 -24 147 -79 38 -56 43 -96 43 -328 0 -122 3 -228 6 -237 5 -13 22 -16 79 -16 l72 0 7 61 c9 93 7 375 -4 452 -27 185 -136 294 -305 304 -66 4 -74 2 -150 -37 l-80 -41 -3 28 c-5 42 -27 53 -106 52 -39 -1 -79 -3 -88 -6z"/>
    <path d="M4908 1256 c-108 -31 -179 -94 -232 -206 -29 -61 -31 -72 -31 -185 0 -114 2 -123 32 -187 63 -133 156 -203 288 -215 53 -5 78 -1 151 22 52 17 89 24 91 18 14 -40 32 -48 106 -48 93 0 107 10 107 76 0 43 -3 51 -25 61 l-25 11 0 327 0 327 -40 6 c-63 8 -118 -2 -123 -24 -7 -25 -38 -24 -88 1 -51 26 -149 34 -211 16z m179 -147 c40 -15 71 -47 96 -99 18 -37 22 -63 22 -145 0 -87 -3 -107 -26 -156 -75 -159 -285 -146 -359 23 -30 67 -33 172 -7 239 41 107 176 175 274 138z"/>
  </g>
</svg>